/* XPM */
static char *result[] = {
/* columns rows colors chars-per-pixel */
"64 64 172 2 ",
"   c black",
".  c #010101",
"X  c #020202",
"o  c gray1",
"O  c gray2",
"+  c #060606",
"@  c gray4",
"#  c #0B0B0B",
"$  c gray5",
"%  c gray6",
"&  c #130000",
"*  c #140000",
"=  c #190000",
"-  c #1A0101",
";  c #1C0000",
":  c #101010",
">  c #111111",
",  c gray7",
"<  c #131313",
"1  c gray8",
"2  c #161616",
"3  c gray9",
"4  c #191919",
"5  c #1B1B1B",
"6  c #1D1A1A",
"7  c #1E1D1D",
"8  c #1E1E1E",
"9  c gray12",
"0  c #2E0000",
"q  c #310000",
"w  c #222222",
"e  c #232222",
"r  c #232323",
"t  c gray14",
"y  c #272727",
"u  c #282828",
"i  c #323232",
"p  c #343434",
"a  c #373737",
"s  c #393939",
"d  c #460000",
"f  c #444444",
"g  c gray27",
"h  c #4A4949",
"j  c gray29",
"k  c #4B4B4B",
"l  c #4E4E4E",
"z  c #595858",
"x  c #5B5B5B",
"c  c gray37",
"v  c #605F5F",
"b  c #606060",
"n  c #676666",
"m  c #CA0000",
"M  c #CD0000",
"N  c #D10000",
"B  c #D30000",
"V  c #D70000",
"C  c #D80000",
"Z  c #DF1818",
"A  c #E00000",
"S  c #E60000",
"D  c #E70000",
"F  c #E80000",
"G  c #E90101",
"H  c #EB0000",
"J  c #ED0000",
"K  c #F00000",
"L  c #F60000",
"P  c #F70000",
"I  c #F90000",
"U  c #FA0000",
"Y  c #FB0000",
"T  c #FC0000",
"R  c red",
"E  c #FF0101",
"W  c #FF0202",
"Q  c #FF0303",
"!  c #FF0404",
"~  c #FF0505",
"^  c #FF0606",
"/  c #FF0707",
"(  c #FF0808",
")  c #FF0B0B",
"_  c #FF0C0C",
"`  c #FF0D0D",
"'  c #E21616",
"]  c #FF1010",
"[  c #FF1111",
"{  c #FF1212",
"}  c #FF1313",
"|  c #FF1515",
" . c #FF1616",
".. c #FF1919",
"X. c #FF1A1A",
"o. c #FF1D1D",
"O. c #FF2020",
"+. c #FF2121",
"@. c #FF2222",
"#. c #FF2323",
"$. c #F76161",
"%. c #F76565",
"&. c #FF6464",
"*. c #FF6565",
"=. c #FF6868",
"-. c #FF6969",
";. c #848484",
":. c gray52",
">. c #868686",
",. c #888888",
"<. c gray58",
"1. c #9A9A9A",
"2. c #9B9B9B",
"3. c gray61",
"4. c #9D9D9D",
"5. c #9F9F9F",
"6. c #A0A0A0",
"7. c gray66",
"8. c #AFAFAF",
"9. c gray72",
"0. c #FF8383",
"q. c #FF8686",
"w. c #FF9B9B",
"e. c #FFA1A1",
"r. c #FFA5A5",
"t. c #FCA9A9",
"y. c #FFAAAA",
"u. c #FFADAD",
"i. c #FFAEAE",
"p. c #FFAFAF",
"a. c #FFB0B0",
"s. c #FFB4B4",
"d. c #FFB5B5",
"f. c #FFB8B8",
"g. c #FFBBBB",
"h. c #FFBDBD",
"j. c #C8C8C8",
"k. c gray79",
"l. c #CACACA",
"z. c #DDDDDD",
"x. c gray87",
"c. c #FFC2C2",
"v. c #FFC4C4",
"b. c #FFC6C6",
"n. c #FFC7C7",
"m. c #FFC8C8",
"M. c #FACDCD",
"N. c #FFCFCF",
"B. c #FFD6D6",
"V. c #FFD7D7",
"C. c #FFDBDB",
"Z. c gray88",
"A. c #E1E1E1",
"S. c #E9E9E9",
"D. c #FFE5E5",
"F. c #FFE7E7",
"G. c #FFE8E8",
"H. c #FFE9E9",
"J. c #FFEAEA",
"K. c #FFEBEB",
"L. c #FFECEC",
"P. c gray96",
"I. c #FFF1F1",
"U. c #FFF2F2",
"Y. c #FFF3F3",
"T. c #FFF4F4",
"R. c #FFF5F5",
"E. c gray98",
"W. c #FBFBFB",
"Q. c snow",
"!. c #FDFDFD",
"~. c white",
/* pixels */
"                                                                                                                                ",
"                                                                                                                                ",
"                                                                                                                                ",
"                                          8.1.1.1.1.1.1.1.1.2.2.2.2.1.1.1.1.1.1.1.1.8.                                          ",
"                                          a                                         a                                           ",
"                                          a                                         a                                           ",
"                                          a                                         a                                           ",
"                            5 O O O O O O .     < P.P.P.$.L L P I I I %.P.P.P.O     . O O O O O O 5                             ",
"                            2                   1 ~.~.~.*.R R R R R R -.~.~.~.O                   2                             ",
"                            2                   1 ~.~.~.*.R R R R R R -.~.~.~.O                   2                             ",
"                      j.j.j.,     + h h h h j j z ~.~.~.&.R R R R R R =.~.~.~.l j j j j j j @     1 c c c                       ",
"                    j.            3 ~.~.~.~.~.~.~.~.~.~.*.R R R R R R *.~.~.~.~.~.~.~.~.~.~.2             j.                    ",
"                    j.            3 ~.~.~.~.~.~.~.~.~.~.*.R R R R R R *.~.~.~.~.~.~.~.~.~.~.2             j.                    ",
"                    j.            3 ~.~.~.~.~.~.~.~.~.~.*.R R R R R R *.~.~.~.~.~.~.~.~.~.~.2             j.                    ",
"              5 2 2 ,       m C C Z ~.~.~.~.~.~.Q.#.@.@._ R R R R R R ) o.O.+.Q.~.~.~.~.~.~.' A A m       , 2 2 5               ",
"              O             K R R ..~.~.~.~.~.~.Q.R R R R R R R R R R R R R R Q.~.~.~.~.~.~. .R R D             O               ",
"              O             K R R ..~.~.~.~.~.~.Q.R R R R R R R R R R R R R R Q.~.~.~.~.~.~. .R R F             O               ",
"              O     O $ $ $ K R R ..Y.R.R.T.Y.I.K.R R R R R R R R R R R R R R L.U.U.U.I.I.I.| R R G : : : X     O               ",
"              O     b ~.~.~.` R R R R R R R R R R R R R R R R R R R R R R R R R R R R R R R R R R  .~.~.~.a     O               ",
"              O     b ~.~.~.` R R R R R R R R R R R R R R R R R R R R R R R R R R R R R R R R R R  .~.~.~.a     O               ",
"              O     b ~.~.~.) R R R R R R R R R R R R R R R R R R R R R R R R R R R R R R R R R R  .~.~.~.i     O               ",
"      9.k k k .     b ~.~.~.f.d.d.e.R R R R R R ! d.d.d.d.d.d.d.d.d.d.d.d.d.d.W R R R R R R r.d.d.g.~.~.~.p     . a a a 8.      ",
"      1.            b ~.~.~.~.~.~.F.R R R R R R ~ ~.~.~.~.~.~.~.~.~.~.~.~.~.~.Q R R R R R R H.~.~.~.~.~.~.p             1.      ",
"      1.            v ~.~.~.~.~.~.G.R R R R R R ~ ~.~.~.~.~.~.~.~.~.~.~.~.~.~.Q R R R R R R H.~.~.~.~.~.~.p             1.      ",
"      1.      # # # n ~.~.~.~.~.~.H.R R R W W W / ~.~.~.~.~.~.~.~.~.~.~.~.~.~.^ Q Q ! R R R H.~.~.~.~.~.~.s O O O       1.      ",
"      1.      W.~.~.~.~.~.~.~.~.~.H.R R R m.~.~.~.~.~.~.~.~.~.~.~.~.~.~.~.~.~.~.~.~.h.R R R H.~.~.~.~.~.~.~.~.~.E.      1.      ",
"      1.      W.~.~.~.~.~.~.~.~.~.J.R R R m.~.~.~.~.~.~.~.~.~.~.~.~.~.~.~.~.~.~.~.~.c.R R R H.~.~.~.~.~.~.~.~.~.E.      1.      ",
"      1.      W.~.~.~.~.~.~.~.~.~.H.R R R m.~.~.~.~.~.~.~.~.~.~.~.~.~.~.~.~.~.~.~.~.v.R R R H.~.~.~.~.~.~.~.~.~.E.      1.      ",
"      1.      W.~.~.~.~.~.~.~.~.~.H.R R R m.~.~.~.~.~.~.~.~.~.~.~.~.~.~.~.~.~.~.~.~.v.R R R H.~.~.~.~.~.~.~.~.~.E.      1.      ",
"      1.      W.~.~.~.~.~.~.~.~.~.G.R R R m.~.~.~.~.~.~.~.~.~.~.~.~.~.~.~.~.~.~.~.~.v.R R R H.~.~.~.~.~.~.~.~.~.E.      1.      ",
"      1.      W.~.~.~.~.~.~.~.~.~.D.R R R m.~.~.~.~.~.~.~.~.~.~.~.~.~.~.~.~.~.~.~.~.v.R R R H.~.~.~.~.~.~.~.~.~.E.      1.      ",
"      1.      W.~.~.~.~.~.~.~.~.~.C.R R R m.~.~.~.~.~.~.~.~.~.~.~.~.~.~.~.~.~.~.~.~.v.R R R H.~.~.~.~.~.~.~.~.~.E.      1.      ",
"      1.      W.~.~.~.~.~.~.} R R R R R R m.~.~.~.~.~.~.~.~.~.~.~.~.~.~.~.~.~.~.~.~.n.R R R E E E X.~.~.~.~.~.~.E.      1.      ",
"      1.      W.~.~.~.~.~.~.[ R R R R R R m.~.~.~.~.~.~.~.~.~.~.~.~.~.~.~.~.~.~.~.~.b.R R R R R R ..~.~.~.~.~.~.E.      1.      ",
"      1.      W.~.~.~.~.~.~.] R R R R R R m.~.~.~.~.~.~.~.~.~.~.~.~.~.~.~.~.~.~.~.~.v.R R R R R R  .~.~.~.~.~.~.E.      1.      ",
"      1.      t.u.u.u.y.r.w.( R R R R R R q.a.a.s.~.~.~.~.~.~.~.~.~.~.~.~.~.~.a.p.i.0.R R R R R R { n.m.N.B.V.B.M.      1.      ",
"      1.      T R R R R R R R R R R R R R R R R ) ~.~.~.~.~.~.~.~.~.~.~.~.~.~.~ R R R R R R R R R R R R R R R R U       1.      ",
"      1.      Y R R R R R R R R R R R R R R R R ) ~.~.~.~.~.~.~.~.~.~.~.~.~.~.~ R R R R R R R R R R R R R R R R U       1.      ",
"      1.      Y R R R R R R R R R R R R R R R R ) ~.~.~.~.~.~.~.~.~.~.~.~.~.~.~ R R R R R R R R R R R R R R R R U       1.      ",
"      1.      Y R R R R R R 0 & & & & * * = = = - w e t r e w 8 9 9 7 7 6 6 6 = = = = = = = = = = d R R R R R R U       1.      ",
"      1.      Y R R R R R R ;                                                                     q R R R R R R U       1.      ",
"      1.      Y R R R R R R ;                                                                     q R R R R R R U       1.      ",
"      1.      M N B V V V V =     o u u y u y y y       4 y y y y y y 4       y y y u y y y o     0 H H H J H H S       1.      ",
"      1.                          3 ~.~.~.~.~.~.E.      3.~.~.~.~.~.~.1.      E.~.~.~.~.~.~.2                           1.      ",
"      1.                          3 ~.~.~.~.~.~.E.      3.~.~.~.~.~.~.1.      E.~.~.~.~.~.~.2                           1.      ",
"      1.                          3 ~.~.~.~.~.~.E.      3.~.~.~.~.~.~.1.      E.~.~.~.~.~.~.2                           1.      ",
"              O             l.x.x.A.~.~.~.~.~.~.E.      3.~.~.~.~.~.~.1.      E.~.~.~.~.~.~.Z.z.z.k.            O               ",
"              O             S.~.~.~.~.~.~.~.~.~.E.      4.~.~.~.~.~.~.1.      E.~.~.~.~.~.~.~.~.~.S.            O               ",
"              O             S.~.~.~.~.~.~.~.~.~.E.      5.~.~.~.~.~.~.1.      W.~.~.~.~.~.~.~.~.~.S.            O               ",
"              2 > % $       S.~.~.~.~.~.~.~.~.~.E.: : : 7.~.~.~.~.~.~.6.: : : W.~.~.~.~.~.~.~.~.~.S.      % > > 2               ",
"                    j.      S.~.~.~.~.~.~.~.~.~.~.~.~.~.~.~.~.~.~.~.~.~.~.~.~.~.~.~.~.~.~.~.~.~.~.S.      j.                    ",
"                    j.      S.~.~.~.~.~.~.~.~.~.~.~.~.~.~.~.~.~.~.~.~.~.~.~.~.~.~.~.~.~.~.~.~.~.~.S.      j.                    ",
"                    j.      S.~.~.~.~.~.~.~.~.~.~.~.~.~.~.~.~.~.~.~.~.~.~.~.~.~.~.~.~.~.~.~.~.~.~.S.      j.                    ",
"                    j.      g j j x ~.~.~.~.~.~.~.~.~.~.~.~.~.~.~.~.~.~.~.~.~.~.~.~.~.~.~.~.x j j f       j.                    ",
"                    j.            3 ~.~.~.~.~.~.~.~.~.~.~.~.~.~.~.~.~.~.~.~.~.~.~.~.~.~.~.~.3             j.                    ",
"                    j.            3 ~.~.~.~.~.~.~.~.~.~.~.~.~.~.~.~.~.~.~.~.~.~.~.~.~.~.~.~.3             j.                    ",
"                    k.O O O       3 !.!.!.!.!.!.!.!.!.!.!.!.!.!.!.!.!.!.!.!.!.!.!.!.!.!.!.!.2       X X X j.                    ",
"                            2                                                                     t                             ",
"                            2                                                                     t                             ",
"                            2                                                                     t                             ",
"                            <.,.>.:.,.,.,.,.,.,.,.,.,.,.,.,.,.,.,.,.,.,.,.,.,.,.,.,.,.,.,.,.;.:.>.1.                            ",
"                                                                                                                                ",
"                                                                                                                                ",
"                                                                                                                                "
};
