/* XPM */
static char *result[] = {
/* columns rows colors chars-per-pixel */
"64 64 4 1 ",
"  c black",
". c #D82800",
"X c #887000",
"o c #FC9838",
/* pixels */
"                    ........................                    ",
"                    ........................                    ",
"                    ........................                    ",
"                    ........................                    ",
"                ........................................        ",
"                ........................................        ",
"                ........................................        ",
"                ........................................        ",
"                XXXXXXXXXXXXXXXXooooooooXXXXoooo                ",
"                XXXXXXXXXXXXXXXXooooooooXXXXoooo                ",
"                XXXXXXXXXXXXXXXXooooooooXXXXoooo                ",
"                XXXXXXXXXXXXXXXXooooooooXXXXoooo                ",
"            XXXXXXXXooooXXXXooooooooooooXXXXoooooooooooo        ",
"            XXXXXXXXooooXXXXooooooooooooXXXXoooooooooooo        ",
"            XXXXXXXXooooXXXXooooooooooooXXXXoooooooooooo        ",
"            XXXXXXXXooooXXXXooooooooooooXXXXoooooooooooo        ",
"            XXXXXXXXooooXXXXXXXXooooooooooooXXXXoooooooooooo    ",
"            XXXXXXXXooooXXXXXXXXooooooooooooXXXXoooooooooooo    ",
"            XXXXXXXXooooXXXXXXXXooooooooooooXXXXoooooooooooo    ",
"            XXXXXXXXooooXXXXXXXXooooooooooooXXXXoooooooooooo    ",
"            XXXXXXXXXXXXooooooooooooooooXXXXXXXXXXXXXXXX        ",
"            XXXXXXXXXXXXooooooooooooooooXXXXXXXXXXXXXXXX        ",
"            XXXXXXXXXXXXooooooooooooooooXXXXXXXXXXXXXXXX        ",
"            XXXXXXXXXXXXooooooooooooooooXXXXXXXXXXXXXXXX        ",
"                    oooooooooooooooooooooooooooooooo            ",
"                    oooooooooooooooooooooooooooooooo            ",
"                    oooooooooooooooooooooooooooooooo            ",
"                    oooooooooooooooooooooooooooooooo            ",
"                XXXXXXXXXXXX....XXXXXXXXXXXX                    ",
"                XXXXXXXXXXXX....XXXXXXXXXXXX                    ",
"                XXXXXXXXXXXX....XXXXXXXXXXXX                    ",
"                XXXXXXXXXXXX....XXXXXXXXXXXX                    ",
"            XXXXXXXXXXXXXXXX....XXXXXXXX....XXXXXXXXXXXX        ",
"            XXXXXXXXXXXXXXXX....XXXXXXXX....XXXXXXXXXXXX        ",
"            XXXXXXXXXXXXXXXX....XXXXXXXX....XXXXXXXXXXXX        ",
"            XXXXXXXXXXXXXXXX....XXXXXXXX....XXXXXXXXXXXX        ",
"        XXXXXXXXXXXXXXXXXXXX................XXXXXXXXXXXXXXXX    ",
"        XXXXXXXXXXXXXXXXXXXX................XXXXXXXXXXXXXXXX    ",
"        XXXXXXXXXXXXXXXXXXXX................XXXXXXXXXXXXXXXX    ",
"        XXXXXXXXXXXXXXXXXXXX................XXXXXXXXXXXXXXXX    ",
"        ooooooooooooXXXX....oooo........oooo....XXXXoooooooo    ",
"        ooooooooooooXXXX....oooo........oooo....XXXXoooooooo    ",
"        ooooooooooooXXXX....oooo........oooo....XXXXoooooooo    ",
"        ooooooooooooXXXX....oooo........oooo....XXXXoooooooo    ",
"        oooooooooooooooo........................oooooooooooo    ",
"        oooooooooooooooo........................oooooooooooo    ",
"        oooooooooooooooo........................oooooooooooo    ",
"        oooooooooooooooo........................oooooooooooo    ",
"        oooooooooooo................................oooooooo    ",
"        oooooooooooo................................oooooooo    ",
"        oooooooooooo................................oooooooo    ",
"        oooooooooooo................................oooooooo    ",
"                ................    ................            ",
"                ................    ................            ",
"                ................    ................            ",
"                ................    ................            ",
"            XXXXXXXXXXXXXXXX            XXXXXXXXXXXXXXXX        ",
"            XXXXXXXXXXXXXXXX            XXXXXXXXXXXXXXXX        ",
"            XXXXXXXXXXXXXXXX            XXXXXXXXXXXXXXXX        ",
"            XXXXXXXXXXXXXXXX            XXXXXXXXXXXXXXXX        ",
"        XXXXXXXXXXXXXXXXXXXX            XXXXXXXXXXXXXXXXXXXX    ",
"        XXXXXXXXXXXXXXXXXXXX            XXXXXXXXXXXXXXXXXXXX    ",
"        XXXXXXXXXXXXXXXXXXXX            XXXXXXXXXXXXXXXXXXXX    ",
"        XXXXXXXXXXXXXXXXXXXX            XXXXXXXXXXXXXXXXXXXX    "
};
