/* XPM */
static char *result[] = {
/* columns rows colors chars-per-pixel */
"64 64 194 2 ",
"   c black",
".  c #220D06",
"X  c #2F1308",
"o  c #2F1408",
"O  c #301408",
"+  c #301409",
"@  c #331509",
"#  c #331609",
"$  c #3A1A09",
"%  c #3B1A09",
"&  c #3B1B09",
"*  c #39190B",
"=  c #3A190B",
"-  c #3A1A0A",
";  c #3B1A0A",
":  c #3C1B09",
">  c #3C1A0A",
",  c #3C1B0A",
"<  c #3D1B0A",
"1  c #3E1B0A",
"2  c #3D1C0A",
"3  c #3E1C0A",
"4  c #3F1C0A",
"5  c #3E1C0B",
"6  c #3F1C0B",
"7  c #39190C",
"8  c #3A190C",
"9  c #3A1A0C",
"0  c #322217",
"q  c #342217",
"w  c #3F2517",
"e  c #3A271B",
"r  c #3F2618",
"t  c #3B281B",
"y  c #3A281C",
"u  c #3B281C",
"i  c #3B291D",
"p  c #3C291C",
"a  c #3C291D",
"s  c #3C2A1D",
"d  c #3D2A1D",
"f  c #3D2B1D",
"g  c #3E2B1D",
"h  c #3C2A1E",
"j  c #3D2A1E",
"k  c #3D2B1E",
"l  c #3E2A1E",
"z  c #3E2B1E",
"x  c #3F2B1E",
"c  c #3E2B1F",
"v  c #3F2B1F",
"b  c #3F2C1F",
"n  c #401C0B",
"m  c #411C0B",
"M  c #411D0B",
"N  c #411D0C",
"B  c #421D0C",
"V  c #421D0D",
"C  c #411E0E",
"Z  c #44200F",
"A  c #412011",
"S  c #422718",
"D  c #452818",
"F  c #492818",
"G  c #5A2C16",
"H  c #51311F",
"J  c #53301F",
"K  c #4A3020",
"L  c #4B3021",
"P  c #4B3121",
"I  c #4C3121",
"U  c #4E3120",
"Y  c #4F3120",
"T  c #4E3121",
"R  c #4F3121",
"E  c #4C3221",
"W  c #4C3122",
"Q  c #513120",
"!  c #513220",
"~  c #5E3C2C",
"^  c #6E3E26",
"/  c #724028",
"(  c #714229",
")  c #74432A",
"_  c #644536",
"`  c #6A4F42",
"'  c #7F7E7D",
"]  c #804023",
"[  c #834224",
"{  c #834324",
"}  c #834225",
"|  c #844224",
" . c #844324",
".. c #844325",
"X. c #844226",
"o. c #864526",
"O. c #874526",
"+. c #874427",
"@. c #864527",
"#. c #874527",
"$. c #884425",
"%. c #884526",
"&. c #894526",
"*. c #894527",
"=. c #884626",
"-. c #894626",
";. c #8A4626",
":. c #8B4626",
">. c #8A4627",
",. c #8A4528",
"<. c #8F4729",
"1. c #8F4828",
"2. c #8F4829",
"3. c #904828",
"4. c #904829",
"5. c #904929",
"6. c #904A29",
"7. c #904A2A",
"8. c #914A2A",
"9. c #914B2A",
"0. c #954D2B",
"q. c #974E2B",
"w. c #984F2C",
"e. c #984F2D",
"r. c #99502C",
"t. c #98502D",
"y. c #9A502C",
"u. c #9B502C",
"i. c #9B512C",
"p. c #9A502D",
"a. c #9B502D",
"s. c #9B512D",
"d. c #9C512C",
"f. c #9C512D",
"g. c #9C522D",
"h. c #9C512E",
"j. c #9D522E",
"k. c #9C5634",
"l. c #A25531",
"z. c #A35531",
"x. c #A25632",
"c. c #A55732",
"v. c #A65732",
"b. c #A85833",
"n. c #A95833",
"m. c #A85933",
"M. c #A95933",
"N. c #A85934",
"B. c #A95934",
"V. c #B46037",
"C. c #B16038",
"Z. c #BC653B",
"A. c #BD653B",
"S. c #BB663E",
"D. c #BC653C",
"F. c #BD653C",
"G. c #BF673C",
"H. c #C1673C",
"J. c #C0673D",
"K. c #C1673D",
"L. c #C1683C",
"P. c #C0683D",
"I. c #C1683D",
"U. c #AB6543",
"Y. c #B96C47",
"T. c #C37956",
"R. c #BB9C8E",
"E. c #BC9C8E",
"W. c #BC9C8F",
"Q. c #BD9D8F",
"!. c #BC9E90",
"~. c #B6ADA8",
"^. c #B9B0AD",
"/. c #B9B1AD",
"(. c #BAB1AD",
"). c #D9BCAE",
"_. c #D9BCAF",
"`. c #D9BDAF",
"'. c #D9BDB0",
"]. c #E0B5A0",
"[. c #E1B5A0",
"{. c #E0B5A1",
"}. c #E1B5A1",
"|. c #E1B6A1",
" X c #C4C0BF",
".X c #D3D1CF",
"XX c #D8D5D3",
"oX c #DAD5D2",
"OX c #D8D6D4",
"+X c #D9D6D4",
"@X c #E7D8D1",
"#X c #EDDCD4",
"$X c #E1DFDC",
"%X c #F4E6DF",
/* pixels */
"                                                                                                                                ",
"                                                                                                                                ",
"                                                                                                                                ",
"                                                                                                                                ",
"                                                                                                                                ",
"            %X].].{.].{.{.{.].].{.{.].].{.[.{.{.].].].[.{.[.        |.].[.{.].].].{.].].].[.].].].].].{.].}.{.].{.#X            ",
"          ~.V.F.Z.A.Z.Z.A.Z.Z.A.A.A.A.A.A.Z.Z.A.Z.Z.Z.Z.Z.Z.k.$X.XY.Z.A.Z.A.Z.A.A.A.Z.A.A.Z.Z.Z.A.A.Z.A.D.A.Z.F.A.f.@X          ",
"          _.f.b.b.b.b.b.b.b.b.b.b.b.b.b.N.b.M.b.b.b.b.m.b.b.=.b z p.b.b.b.m.m.b.m.m.b.b.m.b.b.b.m.b.b.b.b.b.m.b.b.} R.          ",
"          _.g.b.b.b.b.m.B.b.b.m.b.b.b.b.b.b.m.b.b.b.b.b.b.b.=.z d y.b.b.B.m.b.b.N.b.m.b.b.b.b.b.b.M.B.b.b.b.b.N.b.{ R.          ",
"          _.h.b.b.b.b.m.b.b.b.b.m.b.m.b.b.b.b.m.b.m.m.b.b.m.=.z d y.b.m.b.b.b.b.m.m.b.b.b.b.b.b.b.b.m.b.b.b.m.b.b.[ E.          ",
"          _.h.m.b.b.b.b.b.m.b.m.b.b.b.b.b.m.b.m.b.m.b.m.b.b.-.g j a.b.b.b.b.b.b.m.b.b.b.b.b.b.b.b.b.b.b.b.b.b.b.b.[ R.          ",
"          _.f.b.b.b.b.m.m.m.b.b.b.b.b.b.b.N.b.b.b.m.b.b.m.b.&.z k y.b.m.m.b.b.b.b.b.b.m.b.b.b.b.b.b.b.b.b.m.b.m.b.[ R.          ",
"          _.h.b.b.b.b.b.b.m.b.b.b.b.b.b.b.m.b.b.b.b.b.N.b.b.*.z d s.b.b.b.m.b.b.m.b.b.m.m.b.b.b.b.b.b.b.b.b.m.b.b.[ E.          ",
"          _.f.b.b.b.b.b.b.b.m.b.b.b.b.b.b.m.b.b.m.b.b.b.b.b.-.z d y.b.b.b.b.b.m.b.b.b.b.b.b.b.b.m.b.m.b.b.b.b.M.m.{ R.          ",
"          ).f.b.b.b.N.b.b.b.b.N.M.b.b.b.m.b.b.m.b.b.b.b.b.b.,.z j y.b.b.b.b.b.b.b.b.m.m.b.b.b.b.m.m.b.b.b.b.b.b.b.[ R.          ",
"          _.h.b.b.b.b.b.b.b.b.b.M.m.m.b.b.b.b.b.M.b.b.b.b.b.>.z j y.b.b.b.b.b.b.b.b.b.b.b.b.b.b.b.b.b.m.b.b.b.b.b.{ R.          ",
"          ).f.b.m.b.b.b.b.N.b.b.b.b.m.b.b.m.b.m.m.B.b.m.b.b.;.g k y.b.m.b.b.b.b.b.b.b.m.B.b.b.b.b.B.b.b.b.b.b.b.b.{ R.          ",
"          _.f.b.b.b.b.b.b.b.b.m.b.b.b.b.b.b.b.b.b.b.b.b.b.b.:.z k y.b.b.m.b.b.b.b.b.b.b.b.b.b.b.b.b.b.b.b.b.b.b.m.X.R.          ",
"          ).f.B.b.b.b.b.b.b.b.b.b.b.b.b.b.b.b.b.b.b.b.b.b.b.;.z j y.b.b.b.b.b.b.b.b.b.b.b.b.b.b.b.b.b.b.b.B.b.b.b...R.          ",
"          ).f.m.b.b.b.b.b.b.b.b.b.m.b.b.b.m.b.b.m.b.b.b.b.b.:.g j a.b.b.b.m.b.b.m.b.b.m.b.b.b.b.b.b.b.m.b.b.b.b.b...R.          ",
"          '.q.l.l.l.l.l.l.l.l.l.l.l.l.l.l.l.l.l.l.l.l.l.l.l.$.z k 0.l.l.l.l.l.l.l.l.l.l.l.l.l.l.l.l.l.l.l.l.l.l.z.] !.          ",
"            ` $ $ $ % - - ; ; ; ; ; ; ; > & > , : : : : : < D s h w 2 2 2 1 3 5 3 5 3 6 n 4 n n n n m M N N N V B _             ",
"              i h h h s h h h h s h s h h s h h h h s h s s h j h h s h h h h j h h j h s h s s s h h s s s h s y OX            ",
"              L I I I I I I I I P h h s j W I I I I I W I I W I I I I I I I E I I W I z h h s P I I I I I W P I K oX            ",
"            S.I.J.I.I.I.I.I.K.J.A.^ h j C.H.L.J.I.I.J.I.I.I.I.P.I.J.P.I.K.J.K.K.I.K.K.r.l h ( G.K.J.I.J.P.L.I.J.J.x.            ",
"          _.f.m.m.m.b.b.b.m.b.b.c.5.s U s.b.b.m.b.m.b.b.b.b.N.m.b.b.b.b.m.m.b.b.b.n.b.@.Q h e.v.m.b.b.m.b.m.b.b.b. .R.          ",
"          ).h.b.N.b.b.b.b.b.B.b.v.5.s U s.m.b.b.b.b.b.b.B.m.b.b.b.b.b.b.b.b.b.b.b.b.b.o.Q s w.v.m.b.b.b.b.m.b.b.b.| E.          ",
"          ).f.b.b.m.b.b.b.m.b.B.c.5.h U s.b.b.b.b.b.b.b.b.b.m.b.b.b.b.b.b.b.m.b.b.b.b.@.Q s e.v.b.b.b.m.b.m.b.b.b.| R.          ",
"          _.f.b.b.b.b.m.b.b.b.m.c.7.h U s.b.m.b.b.b.b.b.b.b.b.b.m.b.b.m.b.b.b.m.m.b.b.+.Q s w.v.m.b.b.b.b.b.b.b.b. .R.          ",
"          _.f.b.b.b.b.b.b.b.b.m.c.6.h T i.m.b.b.b.b.b.b.b.b.b.b.m.b.b.b.b.b.N.b.b.b.b.O.H h w.v.b.b.b.b.b.b.b.b.b. .E.          ",
"          ).f.b.b.b.b.b.b.b.b.b.c.7.s T s.b.b.b.m.b.b.b.b.b.b.b.m.b.b.b.b.b.m.b.b.m.b.O.Q s w.v.b.b.b.b.b.N.b.b.b. .E.          ",
"          ).f.b.b.b.b.b.b.b.b.b.c.7.s Y i.b.b.b.b.m.b.b.b.b.b.m.b.m.b.b.b.b.m.m.b.m.b.O.Q s w.v.b.b.m.m.m.b.m.b.m. .E.          ",
"          _.h.b.b.b.B.b.b.b.b.b.c.7.s R u.m.b.b.b.b.b.m.b.m.m.b.b.b.b.b.b.b.b.b.b.B.b.#.Q h t.v.b.b.b.m.b.b.b.b.b. .E.          ",
"          _.d.b.b.b.b.b.b.b.b.b.c.8.h U s.b.b.b.b.m.b.b.b.b.b.M.b.b.b.b.B.b.b.b.m.m.b.O.Q h w.v.b.b.b.b.b.m.m.b.b. .E.          ",
"          _.h.m.b.b.b.b.b.b.b.b.v.8.h Y i.b.b.m.b.b.b.b.b.b.b.m.b.b.b.b.b.b.b.b.n.b.b.%.Q h e.v.b.b.b.b.b.b.b.b.b...E.          ",
"          _.f.b.b.b.b.b.b.b.B.b.v.8.s T s.b.m.b.b.b.b.b.b.b.b.b.m.b.b.b.b.b.b.b.b.b.b.%.! h e.v.m.b.b.b.m.b.b.m.b. .W.          ",
"          _.f.b.b.b.b.b.m.b.b.b.c.8.h T s.b.b.b.b.b.b.b.b.b.b.b.b.b.b.m.b.b.b.m.b.b.b.%.Q h w.v.b.b.b.b.m.b.b.b.b. .E.          ",
"          ).f.b.m.b.b.b.b.b.b.m.c.9.h T s.b.m.b.b.b.N.b.b.b.m.b.b.b.b.M.b.b.b.b.b.b.b.%.Q h w.v.b.B.m.b.b.b.b.b.b.{ E.          ",
"          ).d.b.b.b.b.b.b.b.b.b.v.8.s Y u.b.b.b.b.b.b.b.b.m.b.b.b.m.m.b.b.b.b.b.m.b.b.=.H h w.v.b.m.b.b.b.m.b.b.b. .E.          ",
"            F o O o O o O + O o # S h s C O o O O X o + X O O X O o O X + O O O O X o Z h h r @ O X X o X o + O + A             ",
"              t p p a a a a p a a h s h s a p a p a p a a p p a p p p a p a p a a a a s s s h a a p p p p a p a e XX            ",
"              s h j j j h s s j j j j d j j j j h j d j d h h h s h j j j j j d j j f d d h d j h j h j j j h s u +X            ",
"            T.I.I.I.I.K.I.I.I.K.K.I.I.I.I.K.I.I.K.I.I.I.I.L./ h h ) I.I.I.K.I.L.I.I.I.L.I.I.I.I.I.I.I.I.K.I.I.I.I.U.            ",
"          `.j.M.M.B.M.M.M.n.M.M.B.B.M.M.M.M.M.M.B.B.M.B.M.M.1.v j s.M.M.M.M.M.B.M.B.M.M.M.M.M.M.M.B.B.M.M.B.M.M.M. .Q.          ",
"          ).h.b.b.b.m.N.b.b.b.b.b.b.b.b.b.b.b.b.b.b.b.m.b.b.1.z j s.b.b.b.b.b.b.b.m.b.b.b.m.b.b.B.b.b.b.b.M.b.m.b. .E.          ",
"          ).f.b.m.b.B.b.m.b.b.b.b.b.B.b.m.b.b.b.b.m.m.m.b.b.<.z j s.m.b.b.b.b.b.b.b.b.m.b.b.b.b.b.m.b.m.b.b.b.b.b. .E.          ",
"          _.f.b.N.b.b.b.b.m.b.b.b.b.b.m.b.b.b.b.b.b.b.b.m.m.1.g d y.b.B.b.b.m.b.b.b.b.b.b.b.b.b.b.b.b.b.b.b.b.b.b...E.          ",
"          _.f.b.b.b.B.b.b.b.b.b.b.b.b.b.b.b.b.b.b.b.b.b.b.b.1.z k a.b.b.b.b.b.b.b.b.b.b.b.b.b.b.b.b.b.m.b.b.b.b.b. .E.          ",
"          _.d.b.b.b.b.m.m.b.b.b.b.b.m.b.b.b.b.b.b.b.b.b.b.b.1.z k s.b.m.b.b.b.b.b.m.b.b.m.b.b.b.b.b.b.b.m.b.b.b.b. .E.          ",
"          ).f.b.b.b.b.b.b.b.b.b.m.b.b.b.b.b.b.b.b.m.b.b.b.b.1.l f a.b.b.b.b.b.b.b.m.b.m.m.b.b.b.b.m.b.b.m.m.b.b.b. .E.          ",
"          _.f.b.b.M.b.b.b.m.b.b.b.b.b.b.b.m.b.b.b.b.b.b.b.b.2.z j p.b.b.b.b.b.b.b.b.b.b.b.b.b.B.b.b.b.b.b.b.b.b.b. .E.          ",
"          _.f.b.b.b.b.b.b.b.b.b.b.b.N.b.b.b.b.b.b.m.b.b.b.b.1.x j p.b.b.b.b.b.b.m.m.b.b.b.b.b.b.b.b.b.m.b.b.m.b.b. .E.          ",
"          ).h.b.m.m.m.b.b.m.b.b.b.M.b.b.b.b.b.b.b.m.b.b.b.b.1.x d y.b.b.b.b.b.b.b.m.b.b.m.b.b.b.b.b.b.b.b.b.b.b.b. .E.          ",
"          ).h.b.m.b.b.b.b.b.b.b.b.m.N.b.b.m.b.b.b.m.b.b.M.m.3.z j p.b.b.b.b.b.b.b.m.b.b.b.b.b.b.b.b.b.b.m.m.b.b.b. .E.          ",
"          ).f.b.b.b.b.b.b.b.b.b.b.m.b.m.b.b.b.b.b.m.b.b.b.b.4.c j u.b.b.b.b.b.b.m.b.b.b.B.b.b.b.b.b.b.b.b.b.b.b.m. .E.          ",
"          _.h.b.b.b.b.b.m.b.b.m.b.m.b.b.b.m.b.m.b.m.b.b.b.b.1.g d p.b.m.b.b.M.b.b.b.b.b.M.m.b.b.b.b.b.b.b.b.b.b.b. .E.          ",
"          _.f.m.b.b.b.m.b.b.b.b.b.b.b.b.b.m.b.N.b.b.b.b.N.b.1.q 0 p.b.b.b.b.b.b.b.b.m.b.b.b.m.b.b.b.b.b.b.b.b.m.b. .E.          ",
"            G 7 7 8 8 8 8 9 8 8 8 7 8 8 = 8 7 9 8 8 9 7 7 8 J     ~ 7 8 8 8 8 8 * 9 8 7 8 8 = 8 * 7 = 9 8 8 9 8 9 .  X          ",
"              /.^./././././././././././././././././././././.        (././././././././././././././././././././././.'             ",
"                                                                                                                                ",
"                                                                                                                                ",
"                                                                                                                                ",
"                                                                                                                                ",
"                                                                                                                                "
};
