/* XPM */
static char *result[] = {
/* columns rows colors chars-per-pixel */
"64 64 143 2 ",
"   c #000000",
".  c #090401",
"X  c #0C0B00",
"o  c #140400",
"O  c #190500",
"+  c #110D01",
"@  c #1C1305",
"#  c #1F1900",
"$  c #230700",
"%  c #210F00",
"&  c #2D0900",
"*  c #350A00",
"=  c #2A1909",
"-  c #341F0B",
";  c #2B2300",
":  c #322A00",
">  c #382E00",
",  c #3E250E",
"<  c #3A3000",
"1  c #440D00",
"2  c #4D0E00",
"3  c #510F00",
"4  c #451404",
"5  c #571000",
"6  c #5A1100",
"7  c #651300",
"8  c #6F1500",
"9  c #701500",
"0  c #7D1700",
"q  c #7C1A00",
"w  c #412800",
"e  c #452A0F",
"r  c #453801",
"t  c #55380E",
"y  c #472A10",
"u  c #722200",
"i  c #663E17",
"p  c #4E4100",
"a  c #504200",
"s  c #574800",
"d  c #5C4C00",
"f  c #665500",
"g  c #685600",
"h  c #725F00",
"j  c #6E4417",
"k  c #75461A",
"l  c #79491B",
"z  c #756100",
"x  c #796301",
"c  c #831800",
"v  c #881900",
"b  c #941B00",
"n  c #A51F00",
"m  c #812C00",
"M  c #942800",
"N  c #8E3E00",
"B  c #B32100",
"V  c #BE2400",
"C  c #C32400",
"Z  c #CD2600",
"A  c #D12700",
"S  c #D92700",
"D  c #D52A00",
"F  c #D82800",
"G  c #C53700",
"H  c #CB3300",
"J  c #C33B00",
"K  c #C93A00",
"L  c #D03400",
"P  c #DB3306",
"I  c #DE3B09",
"U  c #9B5E00",
"Y  c #BA4300",
"T  c #B54800",
"R  c #A95200",
"E  c #A25800",
"W  c #B45304",
"Q  c #846E00",
"!  c #8B6D00",
"~  c #8D6C09",
"^  c #956300",
"/  c #996000",
"(  c #916C00",
")  c #956D0E",
"_  c #877000",
"`  c #8A7101",
"'  c #947406",
"]  c #977608",
"[  c #9B770A",
"{  c #9C790B",
"}  c #AB6408",
"|  c #A1760D",
" . c #AF700E",
".. c #A47A0E",
"X. c #AB7717",
"o. c #AC7D12",
"O. c #B37F15",
"+. c #955A21",
"@. c #9E5F23",
"#. c #9F6123",
"$. c #A66424",
"%. c #AC6826",
"&. c #BD722A",
"*. c #DD470E",
"=. c #CA580E",
"-. c #D0550F",
";. c #D95A14",
":. c #E2430E",
">. c #E55617",
",. c #E85617",
"<. c #E95E1B",
"1. c #C06B12",
"2. c #EA621D",
"3. c #D76C24",
"4. c #DF7621",
"5. c #ED6B22",
"6. c #EF7024",
"7. c #E37B24",
"8. c #EE7B28",
"9. c #F37D2B",
"0. c #B78017",
"q. c #B88117",
"w. c #B98118",
"e. c #CC8722",
"r. c #CD8821",
"t. c #CE802A",
"y. c #D38A24",
"u. c #D88C27",
"i. c #DF8E2A",
"p. c #D78231",
"a. c #DE8631",
"s. c #E18F2B",
"d. c #F5812D",
"f. c #E2912C",
"g. c #E8912F",
"h. c #ED8F34",
"j. c #F88C32",
"k. c #ED9331",
"l. c #F59535",
"z. c #F99637",
"x. c #F99937",
"c. c #FB9738",
"v. c #FD9938",
/* pixels */
"                                                                                                                                ",
"                                                                                                                                ",
"                                                                                                                                ",
"                                                                                                                                ",
"                                                                                                                                ",
"                                                                                                                                ",
"                                                                                                                                ",
"                                                                                                                                ",
"                                                                                                                                ",
"                                                                                                                                ",
"                                                                                                                                ",
"                                                                                                                                ",
"                                                    $ * * * * * * * * * * * * * * * * * * .                                     ",
"                                                    v A A A A A A A A A A A A A A A A A Z *                                     ",
"                                                    v F F F F F F F F F F S F F F F F F Z *                                     ",
"                                            . O O O b F S A D F F F A F F F F F F F A F A 1 o O O O O O O O O O .               ",
"                                            3 C C C Z F F F F F F F F F F F F F F S F F F C C C V C C V C V V C 6 .             ",
"                                            6 F F F F F F F F F F D F F F F F D F S D F F F F F F F F F F F F F 7               ",
"                                            6 F F D A A F D D D D D D F F P D F F D D D F P F F F A D A A A A D 7               ",
"                                            w / U / / U U U U U U } 8.9.9.9.d.d.9.1.U U / 4.9.d.3.4 * * * * * * O               ",
"                                            < ` ` ` ` _ _ _ _ _ ` { l.v.v.v.v.v.v.w._ ` ` g.v.v.p.+                             ",
"                                            > ` Q Q _ _ _ _ _ Q _ [ l.v.x.c.v.v.v.w._ ` ` f.v.v.p.+                             ",
"                                    + p a p ~ e.r.r...` _ ` w.y.e.u.x.v.v.c.v.v.v.w._ _ ` s.v.v.h.@.+.+.+.+.+.#.y               ",
"                                    # Q ` ! O.c.v.v.O.Q ` ` k.v.c.v.c.c.v.v.v.v.v.w.x _ ` f.v.v.v.v.v.v.v.v.v.v.l               ",
"                                    # Q _ Q w.v.c.v.O.Q _ ` k.v.v.v.c.c.x.c.v.c.c.O.Q ! ` f.v.v.v.c.v.v.c.v.v.v.k               ",
"                                    @ Q _ Q w.v.v.c.O.Q _ ` w.r.e.u.x.c.v.v.v.v.c.u.w.O.0.e.e.e.y.c.v.v.c.v.v.v.%.i i j @       ",
"                                    # Q ` Q w.v.c.c.O.Q _ _ _ _ _ { l.c.x.v.c.v.c.v.c.v.c.{ _ _ ] l.v.v.c.c.v.v.v.v.v.v.y       ",
"                                    # Q _ Q w.v.v.v.O._ _ _ _ _ _ { l.c.v.c.v.c.v.v.v.v.c.| Q _ ] l.v.v.v.v.v.v.v.v.v.v.y       ",
"                                    # x ` _ o.i.i.s.w.| ....| ..{ 0.z.v.v.v.v.v.v.k.s.s.i.[ _ _ ' u.s.i.f.f.i.f.t.&.&.&.-       ",
"                                    # Q _ _ ` ` ` ` y.c.x.c.x.c.v.l.v.z.v.v.v.v.v.w.` ` ` _ Q _ _ ` ` ` ` ` ` ` r . . .         ",
"                                    # Q ` _ _ _ ` _ y.v.c.v.c.v.v.v.v.v.v.z.v.v.v.w._ _ _ Q _ _ _ _ _ _ _ _ ` ` <               ",
"                                    @ z x x x x x x e.v.c.c.v.c.v.z.v.z.v.v.v.v.v.w.' ' ' ' ] ' ' ' ] ] ~ x x x <               ",
"                                      + + X + + + + %.v.c.v.c.v.v.v.c.c.v.v.v.c.v.l.k.k.k.k.k.l.h.k.k.z.%.+ X + .               ",
"                                                    #.v.v.c.v.v.v.z.c.c.v.c.c.v.c.v.v.v.v.v.v.v.c.v.v.v.%.                      ",
"                                              . .   #.v.v.z.z.z.z.v.z.z.z.z.z.z.c.z.z.z.c.l.l.l.l.l.l.c.$.                      ",
"                                            ; g f g ~ ....| ....|  .*.*.:.=.............{ t , , , , , , =                       ",
"                                            < ` _ ` _ _ Q Q _ Q _ ^ D S S Y ! Q Q Q Q _ x @                                     ",
"                                            < _ _ _ _ _ ` _ _ _ _ ^ D F S Y Q ` ` _ _ _ _ #                                     ",
"                            . r a a a a p a f ` _ _ _ _ _ _ _ _ _ ^ D F S Y ` Q _ _ ` _ _ m c c q a a a >                       ",
"                            X z ` ` ` ` ` ` ` _ _ _ _ _ _ _ _ _ _ ^ D F S Y Q ` _ _ _ _ ! K S S H ( ` ` f                       ",
"                            X h _ _ _ _ _ _ _ _ _ _ _ _ _ _ _ _ _ ^ D A S Y _ _ _ _ _ _ ! G S S H ! ` ` d                       ",
"                      y j j j X.q.w.0.` _ _ _ _ _ _ _ _ _ ! R R E W >.,.,.-.R R R R R E R ;.,.,.;.~ Q ` x i i j i i i i @       ",
"                      %.c.v.v.v.v.v.f.` _ _ _ _ _ _ _ _ _ ! G S F I l.v.v.6.A F S S F A F d.v.v.k.' Q Q X.v.v.v.v.v.v.c.y       ",
"                      %.x.v.v.v.x.v.s.` Q Q _ _ _ _ _ _ _ ! G S S I l.v.v.6.F F F F F F P d.v.v.k.` ` ` o.v.v.v.v.v.v.z.e       ",
"                      %.v.v.v.c.c.v.k...| ..[ U U U U U U U H S F I 9.9.9.2.F F F F S F F 5.d.9.7.' Q Q ..x.v.v.v.z.c.z.e       ",
"                    . %.v.v.v.v.v.c.c.c.v.v.5.A D F D D F F F F F S F F F F F F S F F F F F F F H ! ! Q 0.x.v.x.v.v.v.l.e       ",
"                      %.v.v.c.v.c.v.c.v.v.v.5.S F F F F F F F S F F F S F F F F F F F F F F F S L ( ` _ 0.x.v.v.v.v.v.c.e       ",
"                      %.v.v.v.c.v.c.c.j.j.j.<.S S F F A F F F F S F F F F F F F F F A F F F F F H h z x #.a.a.a.7.s.s.p.,       ",
"                      %.v.v.v.v.v.c.d.I P I P A S F F F F F F F F F F F F F F F F A F F F F F F V % X + + @ @ @ % @ @ @ .       ",
"                      %.v.v.v.v.v.v.d.F S A F F F S F F A F F S F F S F F F S F F F F F F F S F B o                             ",
"                      $.l.z.l.l.z.c.d.D F F F F F S A F F F F F F A S F F A F F F S F S F S S F B O . . .                       ",
"                      = , , y ) ....[ / U / T F F F F F F F S F F F F F F F S F F F F F F F F F A n n n 8                       ",
"                            X h _ _ _ _ _ _ R S F F F F F F F F F F F F F F F F F A F F F F F F S S S S n                       ",
"                            X z ` _ _ _ _ _ R S F S S F A F S F F S F F F F A F F F F F F F A F F S F S b .                     ",
"                            . z ` _ _ _ _ _ R F F F A F F A 9 6 6 6 6 6 5 v F F F S S F F S F F F S F F b                       ",
"                            X h _ _ _ _ _ _ R F F F F F F Z $             2 S F F F F F F F F F F F F F b                       ",
"                            X z ` _ _ _ _ _ R F F F F F F Z &             3 F F F F F F F S F F S F F F b                       ",
"                            X z _ _ _ _ _ _ ^ T Y Y M 0 c 0 o             * c c c B F F F J T T Y T Y T N < < < @               ",
"                            X h ` _ _ _ _ _ _ _ ` _ :                             0 F F D / _ _ ` ` _ _ ` _ ` ` <               ",
"                            X z ` _ _ _ ` ` ` ` ` ` :                             c F F D / _ _ _ _ _ _ ` _ ` ` r               ",
"                            . s f f f f g g f f f g ;                             u K G J ^ _ _ _ _ _ ` x g f g :               ",
"                              . . . . . .     . .                                 a ` ! _ ! _ ` ` _ _ ` d .   .                 ",
"                                                                                  p ` _ _ _ ` Q ` _ Q ` d                       ",
"                                                                                  p ` _ _ _ Q _ _ _ _ ` d                       "
};
