/* XPM */
static char *result[] = {
/* columns rows colors chars-per-pixel */
"64 64 126 2 ",
"   c #000000",
".  c #080301",
"X  c #0C0A00",
"o  c #120300",
"O  c #190500",
"+  c #110B03",
"@  c #1C1305",
"#  c #1F1900",
"$  c #2C0900",
"%  c #320900",
"&  c #211B00",
"*  c #311D0B",
"=  c #2F2700",
"-  c #362D00",
";  c #382E00",
":  c #3C240D",
">  c #3C3200",
",  c #440D00",
"<  c #4D0E00",
"1  c #5A0F00",
"2  c #561000",
"3  c #5A1100",
"4  c #671300",
"5  c #681300",
"6  c #651803",
"7  c #751600",
"8  c #7B1700",
"9  c #472300",
"0  c #44290F",
"q  c #462A10",
"w  c #662800",
"e  c #673E17",
"r  c #693F17",
"t  c #4F4200",
"y  c #534401",
"u  c #594A00",
"i  c #6D510A",
"p  c #794D17",
"a  c #75471A",
"s  c #78491B",
"d  c #736100",
"f  c #7E6800",
"g  c #801800",
"h  c #8A1A00",
"j  c #A31E00",
"k  c #802700",
"l  c #AF2000",
"z  c #B62400",
"x  c #BC2300",
"c  c #BD3800",
"v  c #C22400",
"b  c #D52600",
"n  c #D92700",
"m  c #D52A00",
"M  c #D92800",
"N  c #C93400",
"B  c #C53A00",
"V  c #DC3507",
"C  c #D73906",
"Z  c #DE3C0A",
"A  c #845000",
"S  c #925200",
"D  c #9C5E00",
"F  c #B74600",
"G  c #B94300",
"H  c #B44800",
"J  c #A55500",
"K  c #A95200",
"L  c #B55706",
"P  c #846E00",
"I  c #8A6D00",
"U  c #966300",
"Y  c #996000",
"T  c #9F6A06",
"R  c #91690F",
"E  c #877000",
"W  c #8A7101",
"Q  c #957506",
"!  c #9B7609",
"~  c #9D790B",
"^  c #A37A0E",
"/  c #A77B10",
"(  c #B27F15",
")  c #BA7E17",
"_  c #9B5E23",
"`  c #AC6727",
"'  c #AC6925",
"]  c #C54605",
"[  c #C55D0E",
"{  c #DE5E17",
"}  c #D75D1C",
"|  c #E34B12",
" . c #E65416",
".. c #E45817",
"X. c #E75718",
"o. c #E75818",
"O. c #D06515",
"+. c #DE651A",
"@. c #EE6B22",
"#. c #F06F24",
"$. c #EF7024",
"%. c #F37D2A",
"&. c #B78017",
"*. c #B88117",
"=. c #B98118",
"-. c #C2841C",
";. c #C98620",
":. c #CD8822",
">. c #D28A24",
",. c #DF8E2A",
"<. c #D78231",
"1. c #DE8632",
"2. c #E18F2B",
"3. c #F4802C",
"4. c #F1892F",
"5. c #E5912D",
"6. c #E8912E",
"7. c #E68C33",
"8. c #F88C32",
"9. c #EE9332",
"0. c #F49535",
"q. c #F99737",
"w. c #F69836",
"e. c #FA9837",
"r. c #FA9738",
"t. c #FD9838",
/* pixels */
"                                                                                                                                ",
"                                                                                                                                ",
"                                                                                                                                ",
"                                                                                                                                ",
"                                                                                                                                ",
"                                                                                                                                ",
"                                                                                                                                ",
"                                                                                                                                ",
"                                                                                                                                ",
"                                                                                                                                ",
"                                                                                                                                ",
"                                                                                                                                ",
"                                                                                                                                ",
"                                                                                                                                ",
"                                                                                                                                ",
"                                                    o O O O O O O O O O O O O O O O O O O .                                     ",
"                                                    8 v v v x x v x v x x v x x x v x x z $                                     ",
"                                                    h M M M n M M M M M M M M M M M M M b %                                     ",
"                                              . . . h M M M n M M M M b M M M M M M b M b % . . . . . . . . . .                 ",
"                                            , j j j v M M M M M M M M M M M M M M M M M M l j j j j j j j j j l <               ",
"                                            3 M M M M M M M M M M M M M M M M M M M M b M M M M n n M M M M M M 5               ",
"                                            4 M n n n n b n n n b n M b M M b b M M M b M M M n n M M M M M M M 4               ",
"                                            9 K K J J J K J J K J L @.@.@.@.@.@.@.[ J K K +.#.#.} 6 3 3 3 3 3 3 $               ",
"                                            > E E E P E E E E E E ~ 0.e.t.t.t.e.t.=.E E W 5.t.t.<.+     .                       ",
"                                            - E P E E E E E P P P ! 0.t.e.e.t.t.t.=.P E W 2.t.t.<.+                             ",
"                                    X - ; - i *.&.&.! E E E ( *.=.-.r.t.t.t.e.t.t.=.P E W 2.t.t.7.a e r e r r r *               ",
"                                    # P E E =.t.t.e.( P E Q 6.t.e.t.e.e.t.t.t.t.t.=.P E W 2.t.t.r.t.t.t.t.t.t.t.s               ",
"                                    # P E P =.t.e.e.&.P E W 6.t.t.t.t.t.r.t.r.t.t.*.P P W 2.t.t.t.t.t.t.t.t.t.t.a               ",
"                                    # P P P =.t.t.t.( P E E >.5.2.2.q.t.t.t.t.t.t.;.^ ^ / >.2.,.2.t.t.t.t.r.t.t._ : : : +       ",
"                                    # P P P *.t.t.e.&.P E E E W E ^ 0.t.t.r.t.r.t.q.q.q.0./ E E ~ 0.t.r.t.r.t.r.0.0.0.0.0       ",
"                                    # P E E =.t.t.t.( P E E E E P ~ 0.t.t.r.t.t.t.t.t.t.q.^ E E ! 0.t.t.r.t.r.r.t.t.t.e.0       ",
"                                    # P E P ( 0.9.9.&.Q Q Q Q Q Q / 0.t.t.t.t.r.q.0.9.9.9.~ I P Q 2.9.0.9.9.9.9.7.7.1.1.:       ",
"                                    # P E E W Q Q Q :.0.9.9.9.9.9.0.q.t.t.t.q.t.t.-.Q Q Q E E E W Q Q Q Q Q Q Q y @ @ @ .       ",
"                                    # P E E E E I P >.t.t.t.t.t.t.t.t.t.t.t.t.t.t.=.P E E E E I E E E I E E E W >               ",
"                                    # f P P P P P P >.t.t.t.t.t.t.t.t.q.q.t.t.q.t.=.I W W W W W W W E W E f I E > .             ",
"                                    . & & & & & & # ' t.q.t.q.t.t.q.t.t.t.t.t.t.r.9.2.2.,.,.,.,.,.,.,.5.' & # & + .             ",
"                                                    _ t.r.t.t.t.r.t.t.e.t.t.q.t.t.t.t.t.t.t.t.t.t.t.t.t.`                       ",
"                                                    ` t.t.t.e.t.t.t.t.t.t.t.t.t.t.t.t.t.t.t.t.0.t.t.r.r.`                       ",
"                                            & y t t R &.=.) { X. .{ ) &.&.) ) ( =.( ( =.( p e a r e e a q                       ",
"                                            > W E E E E P I N n n N I E P P I P E P P P P #                                     ",
"                                            - E E I E E E I N M n N I E P E E E E E E E f #                                     ",
"                                    X - - - u E E E E E W I H F F F K J K D E E E E I E E t - ; = .                             ",
"                                    # P E W E E E E E E I E E E E U m M n G E E E E E E E E E W d X                             ",
"                                    # P W E E E E E E E E E E E E U m M n G E E E E E E E E E W d X                             ",
"                                    # P E E E E E E E E E E E E E U m M b ] ^ ^ ^ T Y D D D Y Y A X                             ",
"                                    # P E E E E I E E E E E E E E U m M b  .e.e.e...b M m b m m z +                             ",
"                                    # P I W E E E E E E E W E E E U N n b | t.t.t...n M M M b M z o                             ",
"                                    & P E E E E E E E E E I E E E U C V V  .8.8.8. .n n M M M M z o                             ",
"                                    # P P P E E E E E E E E E E P ~ 4.8.0.@.V Z V m M M M M n M z o                             ",
"                                    # P E E I E E E E E E E I E P ! w.t.t.@.M M M M M M b M M M x o                             ",
"                                    # P I I E E W E E E E E E E E ^ w.t.t.$.M M M M M b M M M M z o                             ",
"                                    $ c B B K E I E E E E W >.,.2.2.e.t.t.8.%.3.3.| b M M M M M z o                             ",
"                                    % b M n F E E E E E E W 9.t.t.t.t.t.t.t.t.t.t.o.M M b M M M z o                             ",
"                                    % b M M F E E E E E E Q 5.t.t.t.t.t.r.t.t.r.t...M M M M M M x o                             ",
"                                    o 2 3 1 k F F F D E E W 9.t.t.r.t.r.t.3.X.X...Z b M b 7 2 3 < .                             ",
"                                            3 n M n J E E W 5.t.t.t.t.t.t.@.n b n b M M b $                                     ",
"                                            3 M M M J E P Q 9.t.t.t.t.t.t.$.M M M M M M n %                                     ",
"                                            4 M M m J E E W =.:.:.:.:.:.:.O.M M M j g g 8 O                                     ",
"                                            3 M M M J E E I E E P E E E E J M M M 3     .                                       ",
"                                            3 M M m J E E E E E I E E E E J b M n 1                                             ",
"                                            % l l j S E I E E E E E E E E D B B B w # & # .                                     ",
"                                            . .   . u E W E E E E E E E E E I P I P P P f #                                     ",
"                                                  . y W E E E E E E E E E E E E E E E E P #                                     ",
"                                                  . y W E E E E I E E E E E E E E E E E P #                                     "
};
