/* XPM */
static char *result[] = {
/* columns rows colors chars-per-pixel */
"64 64 151 2 ",
"   c #000000",
".  c #090605",
"X  c #0C0806",
"o  c #090808",
"O  c #170700",
"+  c #120A05",
"@  c #1E0B01",
"#  c #120E0B",
"$  c #1B120B",
"%  c #130F10",
"&  c #121212",
"*  c #1C1616",
"=  c #1A1A1A",
"-  c #230E02",
";  c #281203",
":  c #29190E",
">  c #301603",
",  c #361806",
"<  c #321A0A",
"1  c #241911",
"2  c #2B1E13",
"3  c #341F10",
"4  c #3C2512",
"5  c #252221",
"6  c #2B2424",
"7  c #322827",
"8  c #3D302F",
"9  c #4B1D00",
"0  c #552807",
"q  c #54280C",
"w  c #4A2D17",
"e  c #4E311A",
"r  c #513117",
"t  c #533218",
"y  c #5B3518",
"u  c #672E05",
"i  c #653712",
"p  c #673914",
"a  c #6A3812",
"s  c #633C1D",
"d  c #6B3D19",
"f  c #773F15",
"g  c #403231",
"h  c #4A3C3B",
"j  c #73411B",
"k  c #7C461B",
"l  c #7E4821",
"z  c #554442",
"x  c #5D4947",
"c  c #5D4A49",
"v  c #644E4D",
"b  c #79554B",
"n  c #6D5958",
"m  c #725756",
"M  c #735958",
"N  c #7D6360",
"B  c #813A06",
"V  c #8B3F06",
"C  c #8B420C",
"Z  c #964507",
"A  c #964508",
"S  c #9A4A0D",
"D  c #874715",
"F  c #8F4E1C",
"G  c #924A12",
"H  c #93511F",
"J  c #BC5203",
"K  c #AF5A17",
"L  c #A6581B",
"P  c #A9591A",
"I  c #BA601A",
"U  c #8F5324",
"Y  c #985520",
"T  c #C65603",
"R  c #C45806",
"E  c #CE5C06",
"W  c #C15909",
"Q  c #D05700",
"!  c #D95D01",
"~  c #CF630D",
"^  c #D7670F",
"/  c #DE670A",
"(  c #D9670E",
")  c #C36215",
"_  c #C6671C",
"`  c #CC6A1B",
"'  c #D06417",
"]  c #D26A16",
"[  c #DB6A12",
"{  c #E66503",
"}  c #EA6803",
"|  c #E56B0D",
" . c #EF6F0B",
".. c #F66D02",
"X. c #F96D00",
"o. c #F16F09",
"O. c #FD7103",
"+. c #F1700A",
"@. c #FA7309",
"#. c #E36C11",
"$. c #EB7212",
"%. c #F97713",
"&. c #F97815",
"*. c #FA7A19",
"=. c #F77D23",
"-. c #866865",
";. c #8E716E",
":. c #917573",
">. c #997A77",
",. c #A57F77",
"<. c #D67B43",
"1. c #C37B51",
"2. c #F58738",
"3. c #A1807D",
"4. c #F88C44",
"5. c #F78F4E",
"6. c #CE8C6F",
"7. c #DA9470",
"8. c #E8996E",
"9. c #FB9B61",
"0. c #FCA26D",
"q. c #FBA373",
"w. c #F9A478",
"e. c #AB8683",
"r. c #AF8985",
"t. c #B6928F",
"y. c #BC928F",
"u. c #B79390",
"i. c #BA9491",
"p. c #D29D8F",
"a. c #C39B98",
"s. c #CEA39F",
"d. c #FAAB84",
"f. c #F8AE8C",
"g. c #FDB392",
"h. c #CEA4A0",
"j. c #D3A7A3",
"k. c #D5A9A6",
"l. c #DCADA9",
"z. c #DEB1AE",
"x. c #DEB2B0",
"c. c #FDBCA6",
"v. c #FEBEAB",
"b. c #E9B9B5",
"n. c #EFBDB9",
"m. c #FCC0B3",
"M. c #F6C3BE",
"N. c #FBC5BF",
"B. c #FCC6C2",
"V. c #FEC8C4",
"C. c #FFCDC9",
/* pixels */
"o o                                                                                                                         o . ",
"o o                                                                                                                         o o ",
"o o                                                                                                                         o . ",
"o o                                                                                                                         o o ",
"o o                                                                                                                         o . ",
"o o                                                                                                                         o o ",
"o o                                                                                                                         o . ",
"o o                                                                                                                         o o ",
"o o                                                                                                                         o . ",
"o o                                                                                                                         o o ",
"o o                                                                                                                         o . ",
"o o                                                                                                                         o o ",
"o o                                                                                                                         o . ",
"o o                                                                                                                         o o ",
"o o                                                                                                                         o . ",
"o o                                                                                                                         o o ",
"o o                                                                                                                         o . ",
"o o                                                                                                                         o o ",
"o o                                                                                                                         o . ",
"o o                                                     e s s s s s s s s y #                                               o o ",
"o o                                                   # ` @...@.@.@.O.@.@.$.4                                               o . ",
"o o                                               . # 1 ] X.X.X.X.X.X...X.o.e o o                                           o o ",
"o o                                               t ` ' o.X.X.X.X.X.X.X.X...] ] k                                           o . ",
"o o                                               s O.X.X.X.X.X.X.X.X.X.X.X.X.X.G                                           o o ",
"o o                                           w i L O.X.X...X.X.X...X.X.X.X.X.X.I a y #                                     o . ",
"o o                                         o I O.X...X.X.X.X.X.X.X...X.X.X.X.X.O.X.| :                                     o o ",
"o o                                     . + $ ) X.X.X.X.X.X.X.X.X.X.X.X...X.X.X.X.X.| 4 + o                                 o . ",
"o o                                     4 ) ~ o.X.X.X.X.X.X.X...X.X.X.X.X.X.X.X.X.X...( ~ j                                 o o ",
"o o                                     r @.O.O.X.X.X.X.X.X.X.X.X.X.X.X.X.X.X.X.X.O.X.O.O.F                                 o . ",
"o o                                 e D U S Z Z A J ..X.X.X.X.X...X.X.X.X.X.X.X.E A A A A Y k d X                           o o ",
"o o                                 K O.W X       9 ..X.X.X.X.X.X.X.X.X.X.X.X.X.C         B O.[ $                           o . ",
"o o                           . $ 1 I O.R - O # & q / { ....X.X.X.X.X.X.X...} } C % # O O V X./ w $ X                       o o ",
"o o                           4 ' [ o.X...Q E 6.j.,.< , T X.X.X.X.X.X.X.X.} 0 ; b k.p.' Q { X.X.#.[ d                       o . ",
"o o                           4 o.X.X.X.X.X.@.d.C.u.. . T O.X.X.X.X.O.X.X.} >   m C.v.=.X.X.X.X.X.X.f                       o o ",
"o o                           4 o.X.X.X.X.X.X.d.C.u..   u V V V V V V V V B -   m V.v.*.X.X.X.X.X.X.f                       o . ",
"o o                           4 o.X.X.X.X.X.o.d.C.u..                           m V.v.*.X.X.X.X.X.@.f                       o o ",
"o o                       $ 2 s o.X.X.X...X.X.d.C.u..   & 1 * - - @ @ - * * .   m V.v.*...X.X.X.X.X.Y 2 1                   o . ",
"o o                     . H $.$.X.X.X.X.X.X...d.C.u.o . 3.z.7.! ! ! ! <.l.s.6   M V.v.=...X.X.X.X.X.o.$._ $                 o o ",
"o o                     o P O.X.X.X.X.X.X.X...d.C.u.  . y.C.d.O.X.X.X.5.V.n.7   m V.v.&...X...X.X.X.X.X.( $                 o . ",
"o o                       P X.X.X.X.X.X.X.X...d.C.l.-.-.l.C.d...X.X.X.5.V.M.>.N y.B.v.%.X.X.X.X.X.X.X.X.( $                 o o ",
"o o                       P X.X.X.X.X.X...X.X.d.V.V.C.V.V.C.d...X.X.X.5.V.V.C.V.C.V.v.=.X.X.X.X.X.X.X.X.( $                 o . ",
"o o                       L O.X.X.X.X.X.X.X...q.c.c.v.c.c.v.q.X.X.X.X.4.c.c.c.c.c.c.g.*.X.X.X.X.X.X.X.X.^ $                 o o ",
"o o                     . L O.X.X.X.X.X.X.X.X.@.%.&.&.&.&.%.@...X.X.X.o.%.%.%.*.%.%.@.X.X...X.X.X.X.X.X.^ $                 o . ",
"o o                       P X.X...X.X.X...X.X.X.X.X.X.X.X.X.X.X.X.X.X.X.X.X.X.X.X.X.X.X.X.X.X.X.X.X.X.X.( $                 o o ",
"o o                       P X.X.X.X.X...X.X.X.X.X.X.X.X.X.X.X.X.X.X.X.X.X.X.X.X.X.X.X...X.X.X.X.X.X.X.X.( $                 o . ",
"o o                     o K X.X.X.X.X.X.X.X.X.X.X.X.X.X.X.X.X.X.X.X.X.@.X.X.X.X.X.X.X.X.X.X.X.X.X.X.X.X.[ $                 o o ",
"o o                       U [ #...X.X.X.X.X.X.X.X.@.=.=.=.=.=.=.=.=.=.=.=.=.=.=.%.X.X.X.X.X.X.X.X.X. .[ I #                 o . ",
"o o                       # # t o.X.X.X.X.X.X...X.2.v.m.n.v.m.m.v.v.n.v.v.v.n.N.9...X.X.X.X.X.X.X.X.D # $                   o o ",
"o o                           4 +.O.O.O...O.O.X...2.B.V.V.V.V.V.V.B.V.B.V.V.V.V.0.......O...O.....O.f                       o . ",
"o o                           $ p a a a a p a 1.w.f.B.V.V.V.V.V.V.V.V.V.V.V.V.V.c.w.8.l a a a a d a 3                       o o ",
"o o                                           :.C.V.V.V.V.N.V.N.V.B.V.V.B.V.V.V.V.C.x.&                                     o . ",
"o o                                 o % & % % 3.V.B.V.V.V.V.V.V.V.V.V.B.V.V.N.V.b.h.t.5 & %                                 o o ",
"o o                               . = o o o o r.C.V.V.V.V.V.V.V.V.V.V.N.V.B.V.C.>.# % o o =                                 o . ",
"o o                               o %       . e.C.B.B.V.B.V.V.V.B.V.V.V.V.V.V.V.;.        &                                 o o ",
"o o                           o = o o         g x x v v j.C.V.N.V.V.V.V.V.B.V.C.:.        =                                 o . ",
"o o                           = o                       y.C.V.V.V.V.N.V.V.V.V.C.:.        =                                 o o ",
"o o                           & o .                   . :.i.j.B.V.N.V.V.V.N.s.a.n     & & =                                 o . ",
"o o                           & o                       o . c B.V.V.V.B.V.n.8 . .   o & o o                                 o o ",
"o o                           = o .                         z M.N.M.M.M.V.b.7       o o                                     o . ",
"o o                             o o &                       5 z h h h x z h #     . o o                                     o o ",
"o o                                 =                       =         o             o o                                     o . ",
"o o                                 = o % % % % & o & & % % = .       & & & & & % % = o                                     o o ",
"o o                                 . o . o o . . o o . . o o         . o . . . . o o                                       o . ",
"o o                                                                                                                         o o "
};
