/* XPM */
static char *result[] = {
/* columns rows colors chars-per-pixel */
"64 64 153 2 ",
"   c #000000",
".  c #090605",
"X  c #0C0906",
"o  c #090808",
"O  c #170700",
"+  c #120A05",
"@  c #1E0B01",
"#  c #130D0B",
"$  c #1D0F09",
"%  c #1B120B",
"&  c #120F10",
"*  c #121111",
"=  c #1C1514",
"-  c #1A1718",
";  c #1A1919",
":  c #230D02",
">  c #281203",
",  c #23190F",
"<  c #341603",
"1  c #321B0C",
"2  c #241A11",
"3  c #2B1E13",
"4  c #3D2412",
"5  c #2A2423",
"6  c #322827",
"7  c #362B2A",
"8  c #3B302F",
"9  c #4B1D00",
"0  c #552807",
"q  c #54270C",
"w  c #472C17",
"e  c #4E311A",
"r  c #583317",
"t  c #543318",
"y  c #682D04",
"u  c #62310B",
"i  c #673916",
"p  c #643C1D",
"a  c #773E14",
"s  c #4A3736",
"d  c #453836",
"f  c #493C3B",
"g  c #543F3D",
"h  c #75421C",
"j  c #7E471A",
"k  c #50403E",
"l  c #564644",
"z  c #574948",
"x  c #5F4B4A",
"c  c #614C4B",
"v  c #79564B",
"b  c #725957",
"n  c #735A58",
"m  c #7D6361",
"M  c #813904",
"N  c #8B3E05",
"B  c #8D4005",
"V  c #8B420C",
"C  c #964406",
"Z  c #9A4A0C",
"A  c #864717",
"S  c #914911",
"D  c #904F1E",
"F  c #8E501F",
"G  c #92501E",
"H  c #98551F",
"J  c #B55005",
"K  c #AF5B17",
"L  c #A6591A",
"P  c #A95919",
"I  c #BA6019",
"U  c #8F5424",
"Y  c #875028",
"T  c #C55603",
"R  c #CE5C05",
"E  c #C05908",
"W  c #D05700",
"Q  c #D35A01",
"!  c #D95D01",
"~  c #CF630D",
"^  c #DF6304",
"/  c #D7670F",
"(  c #D9670F",
")  c #DD690E",
"_  c #C06117",
"`  c #CF6816",
"'  c #C6671C",
"]  c #CC6A1B",
"[  c #D06416",
"{  c #D26A16",
"}  c #DA6912",
"|  c #E66502",
" . c #EA6803",
".. c #E46B0D",
"X. c #EF6F0A",
"o. c #F66D02",
"O. c #F96D00",
"+. c #F16F0A",
"@. c #FC7103",
"#. c #F1700B",
"$. c #FA7309",
"%. c #E26C11",
"&. c #EB7212",
"*. c #F97713",
"=. c #F97815",
"-. c #FA7A1A",
";. c #F77D24",
":. c #846866",
">. c #8F7370",
",. c #967674",
"<. c #997A77",
"1. c #A27F7C",
"2. c #D67C45",
"3. c #C47B50",
"4. c #F68639",
"5. c #A3817E",
"6. c #F88C44",
"7. c #F7904F",
"8. c #F79050",
"9. c #F99150",
"0. c #CE8C6E",
"q. c #DB936F",
"w. c #E9996F",
"e. c #FB9B61",
"r. c #FCA26D",
"t. c #FBA373",
"y. c #F9A478",
"u. c #AB8784",
"i. c #AF8A86",
"p. c #B9918E",
"a. c #B79390",
"s. c #D29D8F",
"d. c #C49B97",
"f. c #CEA39F",
"g. c #FBAB83",
"h. c #F9AD8C",
"j. c #FDB493",
"k. c #CFA4A0",
"l. c #D3A7A4",
"z. c #D4A9A6",
"x. c #DCADA9",
"c. c #DFB0AD",
"v. c #FDBCA6",
"b. c #FEBEAC",
"n. c #E0B3B1",
"m. c #EABAB6",
"M. c #EFBEB9",
"N. c #FCC0B4",
"B. c #F5C2BD",
"V. c #FAC4BF",
"C. c #FBC6C1",
"Z. c #FEC8C4",
"A. c #FFCDC9",
/* pixels */
"o o                                                                                                                         o o ",
"o o                                                                                                                         o . ",
"o o                                                                                                                         o o ",
"o o                                                                                                                         o o ",
"o o                                                                                                                         o o ",
"o o                                                                                                                         o . ",
". o                                                                                                                         o o ",
"o o                                                                                                                         o o ",
"o o                                                                                                                         o o ",
"o o                                                                                                                         o . ",
"o o                                                                                                                         o o ",
"o o                                                                                                                         o o ",
". o                                                                                                                         o o ",
"o o                                                                                                                         o . ",
"o o                                                                                                                         o o ",
"o o                                                                                                                         o o ",
"o o                                                                                                                         o o ",
"o o                                                                                                                         o . ",
". o                                                                                                                         o o ",
"o o                                                   . e p p p p p p p p r #                                               o o ",
"o o                                                   X ] $.o.$.$.$.$.@.$.&.4                                               o o ",
"o o                                               . # 2 { O.O.O.O.O.O.O.O.X.e o X                                           o . ",
"o o                                               t ] { +.O.O.O.O.O.O.O.O.o.} ` h                                           o o ",
"o o                                               p $.O.O.O.O.O.O.O.O.O.O.O.O.@.S                                           o o ",
". o                                           e i L o.O.O.O.o.O.O.O.O.O.O.O.O.O._ i r +                                     o o ",
"o o                                         o I @.O.O.O.O.O.O.O.O.o.o.O.O.O.O.O.O.@.%.3                                     o . ",
"o o                                     . X % _ O.O.O.O.O.O.O.O.O.O.O.O.O.O.O.O.O.O...4 + o                                 o o ",
"o o                                     4 ~ / +.O.O.O.O.O.O.O.o.O.O.O.O.o.O.O.O.O.O.o.( ~ h                                 o o ",
"o o                                     t $.@.O.@.O.O.O.O.O.O.O.O.O.O.O.O.O.O.O.O.O.O.@.@.D                                 o o ",
"o o                                 t j U Z C C C J O.O.O.O.O.O.O.O.O.O.O.O.O.O.R C C C C G j h X                           o . ",
". o                               . K @.E X       9 o.O.O.O.O.O.O.o.O.O.O.O.O.O.V .       M @.) %                           o o ",
"o o                           . % , I @.T : O # & q ^ | o.o.O.O.O.O.O.O.O.o. . .V * # O O N O...4 % X                       o o ",
"o o                           1 { / +.O.o.Q R 0.z.1.< < T O.O.O.O.O.O.O.O. .0 > v z.s.[ W | O.o.%.%.i                       o o ",
"o o                           w +.O.O.O.O.O.o.g.A.a.  . T @.@.O.O.O.@.O.O. .> . n A.b.;.O.O.O.O.O.O.a                       o . ",
"o o                           4 +.O.O.O.O.O.O.g.A.a.o . y N N N N N B N B M @   b Z.b.-.O.O.O.O.O.$.a                       o o ",
"o o                           4 +.O.O.O.O.O.$.g.A.a..                           b Z.b.-.O.O.O.O.O.O.a                       o o ",
". o                       % 3 p +.O.O.O.O.O.o.g.A.a.o   * 2 = : @ @ : $ = = .   b Z.b.-.O.O.O.O.O.O.G 3 2 .                 o o ",
"o o                       H &.&.o.O.O.O.O.O.o.g.A.a.. o 5.c.q.! ! ! ! 2.x.k.5   b Z.b.;.O.O.o.O.O.O.#.&.' $                 o . ",
"o o                       P O.O.O.O.O.O.O.O.o.g.A.a.  o p.A.g.@.O.O.O.9.Z.M.6   b Z.b.-.O.O.O.O.O.O.O.O./ %                 o o ",
"o o                     . P @.O.O.O.O.O.O.O.o.g.Z.x.:.:.x.A.g.O.O.O.O.7.Z.V.<.m p.C.b.*.O.O.O.O.O.O.O.O./ %                 o o ",
"o o                       P @.O.O.O.O.O.O.O.O.g.Z.Z.A.Z.Z.A.h.o.O.O.O.8.Z.Z.A.Z.Z.Z.b.;.O.o.O.O.O.O.O.O./ %                 o o ",
"o o                     . P O.O.O.O.O.O.O.o.o.t.b.v.v.v.v.b.e.O.O.O.O.6.v.v.v.v.b.v.j.=.O.O.O.O.O.O.O.O./ %                 o . ",
". o                       L O.o.O.O.O.O.O.O.O.*.*.=.=.=.=.=.*.o.O.O.O.$.*.*.-.-.=.=.*.O.O.O.O.O.O.O.O.O./ %                 o o ",
"o o                     . L @.O.O.O.O.O.O.O.O.O.O.O.O.O.O.O.O.O.O.O.O.O.O.O.O.O.O.O.O.O.O.O.O.o.O.O.O.O.} %                 o o ",
"o o                     . P O.O.O.O.O.O.O.O.o.O.O.O.O.O.O.O.O.O.o.O.O.O.O.O.O.O.O.O.O.O.O.O.O.O.O.O.O.O./ %                 o o ",
"o o                       P O.O.o.O.O.O.O.O.O.O.O.O.O.O.O.O.O.O.O.O.O.$.O.O.O.O.O.O.O.O.O.O.O.O.O.O.O.O./ %                 o . ",
"o o                     . F } ) O.O.O.O.O.O.O.O.O.+.;.;.;.;.;.;.;.;.;.;.;.;.;.;.*.O.O.O.o.O.O.O.O.O.X./ I %                 o o ",
"o o                       # $ t +.O.O.O.o.O.O.O.o.4.b.N.N.b.N.N.b.M.b.b.b.M.b.V.e.O.O.O.O.O.O.O.O.O.A = %                   o o ",
". o                           4 #.o.$.O.O.O.$.O.O.4.V.Z.Z.Z.Z.Z.Z.Z.Z.Z.Z.Z.Z.Z.r.o.O.o.$.O.$.$.o.o.a                       o o ",
"o o                           % u u u u u u u 3.t.h.Z.Z.Z.Z.Z.Z.Z.V.Z.Z.Z.Z.Z.Z.v.y.w.Y h h h h h a 1                       o . ",
"o o                                           ,.Z.Z.Z.Z.V.Z.Z.Z.Z.Z.Z.Z.Z.Z.Z.Z.Z.A.n.-                                     o o ",
"o o                                           ,.Z.Z.Z.Z.Z.Z.Z.Z.Z.Z.Z.Z.Z.Z.Z.Z.m.f.a.5 * X                                 o o ",
"o o                                           ,.A.Z.Z.Z.Z.Z.Z.V.C.Z.Z.V.Z.Z.Z.Z.,.# # o o ;                                 o o ",
"o o                                   . .     ,.Z.Z.Z.V.Z.V.Z.Z.Z.Z.Z.Z.Z.Z.C.Z.>.        - .                               o . ",
". o                                 * * & o & u.A.Z.Z.Z.Z.Z.Z.Z.Z.Z.Z.d.c x x c 7         * o * .                           o o ",
"o o                               . *       . i.A.Z.Z.Z.Z.Z.V.Z.Z.Z.A.1.                      o .                           o o ",
"o o                                 *         :.d.l.C.Z.Z.Z.Z.Z.V.l.d.m                       o o                           o o ",
"o o                               . *         o o g B.Z.Z.Z.Z.Z.M.d o o                       & &                           o . ",
"o o                                 -   .         s B.C.B.B.C.C.m.8                           * o                           o o ",
"o o                                 & o & .       = k l z f f f f 2                       - o o o                           o o ",
". o                                     o .           . o       o o                       -                                 o o ",
"o o                                     o * * * o * * * *       o ; * & * & & * & * * o * ;                                 o . ",
"o o                                     . o o . . o o o .         . o o . o o . . o o . o .                                 o o ",
"o o                                                                                                                         o o "
};
